<svg xmlns="http://www.w3.org/2000/svg" width="48" height="48" viewBox="0 0 64 64" fill="none" style="display: flex; justify-content: center;">
<path d="M32 56C25.2889 56 19.6111 53.6778 14.9667 49.0333C10.3222 44.3889 8 38.7111 8 32C8 25.8667 10 20.5444 14 16.0333C18 11.5222 23.1111 8.88889 29.3333 8.13333C29.9111 8.04444 30.4222 8.12222 30.8667 8.36667C31.3111 8.61111 31.6667 8.93333 31.9333 9.33333C32.2 9.73333 32.3444 10.2 32.3667 10.7333C32.3889 11.2667 32.2222 11.7778 31.8667 12.2667C31.1111 13.4222 30.5444 14.6444 30.1667 15.9333C29.7889 17.2222 29.6 18.5778 29.6 20C29.6 24 31 27.4 33.8 30.2C36.6 33 40 34.4 44 34.4C45.3778 34.4 46.7444 34.2 48.1 33.8C49.4556 33.4 50.6667 32.8444 51.7333 32.1333C52.2222 31.8222 52.7222 31.6778 53.2333 31.7C53.7444 31.7222 54.2 31.8444 54.6 32.0667C55.0444 32.2889 55.3889 32.6222 55.6333 33.0667C55.8778 33.5111 55.9556 34.0444 55.8667 34.6667C55.2444 40.8 52.6333 45.8889 48.0333 49.9333C43.4333 53.9778 38.0889 56 32 56ZM32 50.6667C35.9111 50.6667 39.4222 49.5889 42.5333 47.4333C45.6444 45.2778 47.9111 42.4667 49.3333 39C48.4444 39.2222 47.5556 39.4 46.6667 39.5333C45.7778 39.6667 44.8889 39.7333 44 39.7333C38.5333 39.7333 33.8778 37.8111 30.0333 33.9667C26.1889 30.1222 24.2667 25.4667 24.2667 20C24.2667 19.1111 24.3333 18.2222 24.4667 17.3333C24.6 16.4444 24.7778 15.5556 25 14.6667C21.5333 16.0889 18.7222 18.3556 16.5667 21.4667C14.4111 24.5778 13.3333 28.0889 13.3333 32C13.3333 37.1556 15.1556 41.5556 18.8 45.2C22.4444 48.8444 26.8444 50.6667 32 50.6667Z" fill="#162F6A"/>
</svg>