<svg xmlns="http://www.w3.org/2000/svg" width="48" height="48" viewBox="0 0 64 64" fill="none" style="display: flex; justify-content: center;">
<path d="M32 40C34.2222 40 36.1111 39.2222 37.6666 37.6667C39.2222 36.1111 40 34.2222 40 32C40 29.7778 39.2222 27.8889 37.6666 26.3334C36.1111 24.7778 34.2222 24 32 24C29.7777 24 27.8888 24.7778 26.3333 26.3334C24.7777 27.8889 24 29.7778 24 32C24 34.2222 24.7777 36.1111 26.3333 37.6667C27.8888 39.2222 29.7777 40 32 40ZM32 45.3334C28.3111 45.3334 25.1666 44.0334 22.5666 41.4334C19.9666 38.8334 18.6666 35.6889 18.6666 32C18.6666 28.3111 19.9666 25.1667 22.5666 22.5667C25.1666 19.9667 28.3111 18.6667 32 18.6667C35.6889 18.6667 38.8333 19.9667 41.4333 22.5667C44.0333 25.1667 45.3333 28.3111 45.3333 32C45.3333 35.6889 44.0333 38.8334 41.4333 41.4334C38.8333 44.0334 35.6889 45.3334 32 45.3334ZM5.33329 34.6667C4.57774 34.6667 3.9444 34.4111 3.43329 33.9C2.92218 33.3889 2.66663 32.7556 2.66663 32C2.66663 31.2445 2.92218 30.6111 3.43329 30.1C3.9444 29.5889 4.57774 29.3334 5.33329 29.3334H10.6666C11.4222 29.3334 12.0555 29.5889 12.5666 30.1C13.0777 30.6111 13.3333 31.2445 13.3333 32C13.3333 32.7556 13.0777 33.3889 12.5666 33.9C12.0555 34.4111 11.4222 34.6667 10.6666 34.6667H5.33329ZM53.3333 34.6667C52.5777 34.6667 51.9444 34.4111 51.4333 33.9C50.9222 33.3889 50.6666 32.7556 50.6666 32C50.6666 31.2445 50.9222 30.6111 51.4333 30.1C51.9444 29.5889 52.5777 29.3334 53.3333 29.3334H58.6666C59.4222 29.3334 60.0555 29.5889 60.5666 30.1C61.0777 30.6111 61.3333 31.2445 61.3333 32C61.3333 32.7556 61.0777 33.3889 60.5666 33.9C60.0555 34.4111 59.4222 34.6667 58.6666 34.6667H53.3333ZM32 13.3334C31.2444 13.3334 30.6111 13.0778 30.1 12.5667C29.5889 12.0556 29.3333 11.4222 29.3333 10.6667V5.33335C29.3333 4.5778 29.5889 3.94446 30.1 3.43335C30.6111 2.92224 31.2444 2.66669 32 2.66669C32.7555 2.66669 33.3888 2.92224 33.9 3.43335C34.4111 3.94446 34.6666 4.5778 34.6666 5.33335V10.6667C34.6666 11.4222 34.4111 12.0556 33.9 12.5667C33.3888 13.0778 32.7555 13.3334 32 13.3334ZM32 61.3334C31.2444 61.3334 30.6111 61.0778 30.1 60.5667C29.5889 60.0556 29.3333 59.4222 29.3333 58.6667V53.3334C29.3333 52.5778 29.5889 51.9445 30.1 51.4334C30.6111 50.9222 31.2444 50.6667 32 50.6667C32.7555 50.6667 33.3888 50.9222 33.9 51.4334C34.4111 51.9445 34.6666 52.5778 34.6666 53.3334V58.6667C34.6666 59.4222 34.4111 60.0556 33.9 60.5667C33.3888 61.0778 32.7555 61.3334 32 61.3334ZM15.0666 18.8L12.2 16C11.6666 15.5111 11.4111 14.8889 11.4333 14.1334C11.4555 13.3778 11.7111 12.7334 12.2 12.2C12.7333 11.6667 13.3777 11.4 14.1333 11.4C14.8888 11.4 15.5111 11.6667 16 12.2L18.8 15.0667C19.2888 15.6 19.5333 16.2222 19.5333 16.9334C19.5333 17.6445 19.2888 18.2667 18.8 18.8C18.3111 19.3334 17.7 19.5889 16.9666 19.5667C16.2333 19.5445 15.6 19.2889 15.0666 18.8ZM48 51.8L45.2 48.9334C44.7111 48.4 44.4666 47.7667 44.4666 47.0334C44.4666 46.3 44.7111 45.6889 45.2 45.2C45.6889 44.6667 46.3 44.4111 47.0333 44.4334C47.7666 44.4556 48.4 44.7111 48.9333 45.2L51.8 48C52.3333 48.4889 52.5889 49.1111 52.5666 49.8667C52.5444 50.6222 52.2889 51.2667 51.8 51.8C51.2666 52.3334 50.6222 52.6 49.8666 52.6C49.1111 52.6 48.4888 52.3334 48 51.8ZM45.2 18.8C44.6666 18.3111 44.4111 17.7 44.4333 16.9667C44.4555 16.2334 44.7111 15.6 45.2 15.0667L48 12.2C48.4888 11.6667 49.1111 11.4111 49.8666 11.4334C50.6222 11.4556 51.2666 11.7111 51.8 12.2C52.3333 12.7334 52.6 13.3778 52.6 14.1334C52.6 14.8889 52.3333 15.5111 51.8 16L48.9333 18.8C48.4 19.2889 47.7777 19.5334 47.0666 19.5334C46.3555 19.5334 45.7333 19.2889 45.2 18.8ZM12.2 51.8C11.6666 51.2667 11.4 50.6222 11.4 49.8667C11.4 49.1111 11.6666 48.4889 12.2 48L15.0666 45.2C15.6 44.7111 16.2333 44.4667 16.9666 44.4667C17.7 44.4667 18.3111 44.7111 18.8 45.2C19.3333 45.6889 19.5889 46.3 19.5666 47.0334C19.5444 47.7667 19.2888 48.4 18.8 48.9334L16 51.8C15.5111 52.3334 14.8888 52.5889 14.1333 52.5667C13.3777 52.5445 12.7333 52.2889 12.2 51.8Z" fill="#162F6A"/>
</svg>