<svg xmlns="http://www.w3.org/2000/svg" width="48" height="48" viewBox="0 0 64 64" fill="none" style="display: flex; justify-content: center;">
<g clip-path="url(#clip0_103_78)">
<path opacity="0.969" fill-rule="evenodd" clip-rule="evenodd" d="M63.9375 42.9375C63.9375 45.4375 63.9375 47.9375 63.9375 50.4375C63.2934 53.019 61.6684 54.6231 59.0625 55.25C50.0238 55.3943 40.982 55.4567 31.9375 55.4375C22.893 55.4567 13.8512 55.3943 4.8125 55.25C2.20659 54.6231 0.581587 53.019 -0.0625 50.4375C-0.0625 47.9375 -0.0625 45.4375 -0.0625 42.9375C1.35416 42.9375 2.77084 42.9375 4.1875 42.9375C4.1875 31.4375 4.1875 19.9375 4.1875 8.4375C22.6875 8.4375 41.1875 8.4375 59.6875 8.4375C59.6875 19.9375 59.6875 31.4375 59.6875 42.9375C61.1041 42.9375 62.5209 42.9375 63.9375 42.9375ZM8.0625 12.3125C23.9791 12.3125 39.8959 12.3125 55.8125 12.3125C55.8125 22.5209 55.8125 32.7291 55.8125 42.9375C39.8959 42.9375 23.9791 42.9375 8.0625 42.9375C8.0625 32.7291 8.0625 22.5209 8.0625 12.3125ZM3.6875 46.8125C9.85472 46.7709 16.0214 46.8125 22.1875 46.9375C22.9375 48.4375 23.6875 49.9375 24.4375 51.4375C18.2296 51.5834 12.0212 51.6041 5.8125 51.5C4.59633 51.2005 3.90882 50.4296 3.75 49.1875C3.68756 48.3969 3.66673 47.6053 3.6875 46.8125ZM26.5625 46.8125C30.1467 46.7709 33.7301 46.8125 37.3125 46.9375C36.5625 48.4375 35.8125 49.9375 35.0625 51.4375C32.9791 51.6041 30.8959 51.6041 28.8125 51.4375C28.0271 49.9084 27.2771 48.3668 26.5625 46.8125ZM41.6875 46.8125C47.8541 46.8125 54.0209 46.8125 60.1875 46.8125C60.2491 47.9554 60.1449 49.0804 59.875 50.1875C59.556 50.7149 59.1185 51.1107 58.5625 51.375C55.2976 51.5186 52.0268 51.5811 48.75 51.5625C45.6459 51.5209 42.5416 51.4791 39.4375 51.4375C40.2229 49.9084 40.9729 48.3668 41.6875 46.8125Z" fill="#162F6A"/>
<path opacity="0.939" fill-rule="evenodd" clip-rule="evenodd" d="M12.8125 17.0625C14.1041 17.0625 15.3959 17.0625 16.6875 17.0625C16.6875 18.3541 16.6875 19.6459 16.6875 20.9375C15.3959 20.9375 14.1041 20.9375 12.8125 20.9375C12.8125 19.6459 12.8125 18.3541 12.8125 17.0625Z" fill="#162F6A"/>
<path opacity="0.966" fill-rule="evenodd" clip-rule="evenodd" d="M21.4375 17.0625C31.3125 17.0625 41.1875 17.0625 51.0625 17.0625C51.0625 18.3541 51.0625 19.6459 51.0625 20.9375C41.1875 20.9375 31.3125 20.9375 21.4375 20.9375C21.4375 19.6459 21.4375 18.3541 21.4375 17.0625Z" fill="#162F6A"/>
<path opacity="0.939" fill-rule="evenodd" clip-rule="evenodd" d="M12.8125 25.6875C14.1041 25.6875 15.3959 25.6875 16.6875 25.6875C16.6875 26.9791 16.6875 28.2709 16.6875 29.5625C15.3959 29.5625 14.1041 29.5625 12.8125 29.5625C12.8125 28.2709 12.8125 26.9791 12.8125 25.6875Z" fill="#162F6A"/>
<path opacity="0.967" fill-rule="evenodd" clip-rule="evenodd" d="M21.4375 25.6875C28.4375 25.6875 35.4375 25.6875 42.4375 25.6875C42.4375 26.9791 42.4375 28.2709 42.4375 29.5625C35.4375 29.5625 28.4375 29.5625 21.4375 29.5625C21.4375 28.2709 21.4375 26.9791 21.4375 25.6875Z" fill="#162F6A"/>
<path opacity="0.939" fill-rule="evenodd" clip-rule="evenodd" d="M12.8125 34.3125C14.1041 34.3125 15.3959 34.3125 16.6875 34.3125C16.6875 35.6041 16.6875 36.8959 16.6875 38.1875C15.3959 38.1875 14.1041 38.1875 12.8125 38.1875C12.8125 36.8959 12.8125 35.6041 12.8125 34.3125Z" fill="#162F6A"/>
<path opacity="0.966" fill-rule="evenodd" clip-rule="evenodd" d="M21.4375 34.3125C31.3125 34.3125 41.1875 34.3125 51.0625 34.3125C51.0625 35.6041 51.0625 36.8959 51.0625 38.1875C41.1875 38.1875 31.3125 38.1875 21.4375 38.1875C21.4375 36.8959 21.4375 35.6041 21.4375 34.3125Z" fill="#162F6A"/>
</g>
<defs>
<clipPath id="clip0_103_78">
<rect width="64" height="64" fill="white"/>
</clipPath>
</defs>
</svg>