<svg xmlns="http://www.w3.org/2000/svg" width="48" height="48" viewBox="0 0 64 64" fill="none" style="display: flex; justify-content: center;">
<path opacity="0.986" fill-rule="evenodd" clip-rule="evenodd" d="M7.5625 1.9375C23.8125 1.91666 40.0625 1.9375 56.3125 2C59.3334 2.6875 61.1875 4.54166 61.875 7.5625C61.9584 19.8125 61.9584 32.0625 61.875 44.3125C61.1886 47.3323 59.3345 49.1864 56.3125 49.875C55.856 49.9374 55.3978 49.9581 54.9375 49.9375C54.9375 49.2291 54.9375 48.5209 54.9375 47.8125C57.0686 47.7444 58.5895 46.7444 59.5 44.8125C59.7336 44.2103 59.8586 43.5853 59.875 42.9375C59.9584 31.6041 59.9584 20.2709 59.875 8.9375C59.5625 5.95834 57.9166 4.3125 54.9375 4C39.6041 3.91666 24.2709 3.91666 8.9375 4C5.49763 4.46225 3.83095 6.44141 3.9375 9.9375C21.9375 9.9375 39.9375 9.9375 57.9375 9.9375C57.9375 10.6042 57.9375 11.2708 57.9375 11.9375C39.9375 11.9375 21.9375 11.9375 3.9375 11.9375C3.87804 22.6485 3.94054 33.3569 4.125 44.0625C4.83983 46.4659 6.44399 47.7159 8.9375 47.8125C8.9375 48.5209 8.9375 49.2291 8.9375 49.9375C6.2234 49.9086 4.1609 48.742 2.75 46.4375C2.39383 45.7667 2.14383 45.0585 2 44.3125C1.91667 32.0625 1.91667 19.8125 2 7.5625C2.71013 4.53994 4.5643 2.66494 7.5625 1.9375ZM50.9375 17.1875C51.0655 18.098 51.253 19.0148 51.5 19.9375C52.2631 21.8023 52.7006 23.7398 52.8125 25.75C52.5616 28.667 50.9783 30.0003 48.0625 29.75C46.71 29.4174 45.7725 28.6049 45.25 27.3125C44.7654 24.3919 45.4321 21.7669 47.25 19.4375C48.2481 18.2904 49.4774 17.5404 50.9375 17.1875ZM15.8125 19.8125C15.922 19.7961 16.0054 19.8378 16.0625 19.9375C16.8125 21.5625 17.5625 23.1875 18.3125 24.8125C16.7709 24.9791 15.2291 24.9791 13.6875 24.8125C14.3974 23.1431 15.1058 21.4765 15.8125 19.8125Z" fill="#162F6A"/>
<path fill-rule="evenodd" clip-rule="evenodd" d="M7.9375 5.9375C8.60416 5.9375 9.27084 5.9375 9.9375 5.9375C9.9375 6.60416 9.9375 7.27084 9.9375 7.9375C9.27084 7.9375 8.60416 7.9375 7.9375 7.9375C7.9375 7.27084 7.9375 6.60416 7.9375 5.9375Z" fill="#162F6A"/>
<path fill-rule="evenodd" clip-rule="evenodd" d="M11.9375 5.9375C12.6041 5.9375 13.2709 5.9375 13.9375 5.9375C13.9375 6.60416 13.9375 7.27084 13.9375 7.9375C13.2709 7.9375 12.6041 7.9375 11.9375 7.9375C11.9375 7.27084 11.9375 6.60416 11.9375 5.9375Z" fill="#162F6A"/>
<path fill-rule="evenodd" clip-rule="evenodd" d="M15.9375 5.9375C16.6041 5.9375 17.2709 5.9375 17.9375 5.9375C17.9375 6.60416 17.9375 7.27084 17.9375 7.9375C17.2709 7.9375 16.6041 7.9375 15.9375 7.9375C15.9375 7.27084 15.9375 6.60416 15.9375 5.9375Z" fill="#162F6A"/>
<path fill-rule="evenodd" clip-rule="evenodd" d="M19.9375 5.9375C24.6041 5.9375 29.2709 5.9375 33.9375 5.9375C33.9375 6.60416 33.9375 7.27084 33.9375 7.9375C29.2709 7.9375 24.6041 7.9375 19.9375 7.9375C19.9375 7.27084 19.9375 6.60416 19.9375 5.9375Z" fill="#162F6A"/>
<path opacity="0.99" fill-rule="evenodd" clip-rule="evenodd" d="M27.9375 13.9375C30.6045 13.9166 33.2712 13.9375 35.9375 14C37.5 14.3959 38.4792 15.375 38.875 16.9375C38.9584 30.9375 38.9584 44.9375 38.875 58.9375C38.4792 60.5 37.5 61.4791 35.9375 61.875C33.2709 61.9584 30.6042 61.9584 27.9375 61.875C26.375 61.4791 25.3959 60.5 25 58.9375C24.9167 44.9375 24.9167 30.9375 25 16.9375C25.4187 15.3731 26.3978 14.3731 27.9375 13.9375ZM28.9375 15.9375C31.1518 15.8838 33.3602 15.9463 35.5625 16.125C36.6655 16.727 37.1239 17.6645 36.9375 18.9375C35.6042 18.9375 34.2709 18.9375 32.9375 18.9375C32.9375 19.6041 32.9375 20.2709 32.9375 20.9375C34.2709 20.9375 35.6042 20.9375 36.9375 20.9375C36.9375 21.6041 36.9375 22.2709 36.9375 22.9375C36.2709 22.9375 35.6042 22.9375 34.9375 22.9375C34.9375 23.6041 34.9375 24.2709 34.9375 24.9375C35.6042 24.9375 36.2709 24.9375 36.9375 24.9375C36.9375 25.6041 36.9375 26.2709 36.9375 26.9375C36.2709 26.9375 35.6042 26.9375 34.9375 26.9375C34.9375 27.6041 34.9375 28.2709 34.9375 28.9375C35.6042 28.9375 36.2709 28.9375 36.9375 28.9375C36.9375 29.6041 36.9375 30.2709 36.9375 30.9375C35.6042 30.9375 34.2709 30.9375 32.9375 30.9375C32.9375 31.6041 32.9375 32.2709 32.9375 32.9375C34.2709 32.9375 35.6042 32.9375 36.9375 32.9375C36.9375 33.6041 36.9375 34.2709 36.9375 34.9375C36.2709 34.9375 35.6042 34.9375 34.9375 34.9375C34.9375 35.6041 34.9375 36.2709 34.9375 36.9375C35.6042 36.9375 36.2709 36.9375 36.9375 36.9375C36.9375 37.6041 36.9375 38.2709 36.9375 38.9375C36.2709 38.9375 35.6042 38.9375 34.9375 38.9375C34.9375 39.6041 34.9375 40.2709 34.9375 40.9375C35.6042 40.9375 36.2709 40.9375 36.9375 40.9375C36.9375 41.6041 36.9375 42.2709 36.9375 42.9375C35.6042 42.9375 34.2709 42.9375 32.9375 42.9375C32.9375 43.6041 32.9375 44.2709 32.9375 44.9375C34.2709 44.9375 35.6042 44.9375 36.9375 44.9375C36.9375 45.6041 36.9375 46.2709 36.9375 46.9375C36.2709 46.9375 35.6042 46.9375 34.9375 46.9375C34.9375 47.6041 34.9375 48.2709 34.9375 48.9375C35.6042 48.9375 36.2709 48.9375 36.9375 48.9375C36.9375 49.6041 36.9375 50.2709 36.9375 50.9375C36.2709 50.9375 35.6042 50.9375 34.9375 50.9375C34.9375 51.6041 34.9375 52.2709 34.9375 52.9375C35.6042 52.9375 36.2709 52.9375 36.9375 52.9375C36.9375 53.6041 36.9375 54.2709 36.9375 54.9375C35.6042 54.9375 34.2709 54.9375 32.9375 54.9375C32.9375 55.6041 32.9375 56.2709 32.9375 56.9375C34.2709 56.9375 35.6042 56.9375 36.9375 56.9375C37.0428 57.9381 36.7512 58.7924 36.0625 59.5C35.7193 59.7188 35.3443 59.8438 34.9375 59.875C32.7237 59.9913 30.5153 59.9495 28.3125 59.75C27.4934 59.4249 27.0559 58.8208 27 57.9375C26.9167 44.6041 26.9167 31.2709 27 17.9375C27.1683 16.7903 27.8142 16.1236 28.9375 15.9375Z" fill="#162F6A"/>
<path opacity="0.94" fill-rule="evenodd" clip-rule="evenodd" d="M51.1872 14.9375C51.98 14.9167 52.7716 14.9375 53.5622 15C53.8215 15.2877 53.9882 15.621 54.0622 16C53.8943 16.5012 53.6236 16.9387 53.2497 17.3125C53.2288 17.4791 53.2081 17.6458 53.1872 17.8125C53.7703 19.5831 54.2912 21.3747 54.7497 23.1875C54.9345 24.5158 54.9762 25.8492 54.8747 27.1875C54.6851 27.9411 54.3935 28.6495 53.9997 29.3125C53.661 39.729 53.3277 50.1456 52.9997 60.5625C51.0625 62.1246 48.9167 62.4788 46.5622 61.625C45.9663 61.3202 45.4038 60.9661 44.8747 60.5625C44.5467 50.1456 44.2135 39.729 43.8747 29.3125C43.481 28.6495 43.1893 27.9411 42.9997 27.1875C42.5691 23.1028 43.84 19.6653 46.8122 16.875C48.1277 15.8833 49.5861 15.2376 51.1872 14.9375ZM50.9372 17.1875C49.4771 17.5403 48.2478 18.2903 47.2497 19.4375C45.4318 21.7668 44.7651 24.3918 45.2497 27.3125C45.7722 28.6048 46.7097 29.4173 48.0622 29.75C50.978 30.0002 52.5613 28.667 52.8122 25.75C52.7003 23.7397 52.2628 21.8022 51.4997 19.9375C51.2527 19.0147 51.0652 18.098 50.9372 17.1875ZM46.1872 31.3125C47.4521 31.9058 48.7855 32.0933 50.1872 31.875C50.6946 31.7405 51.1946 31.5946 51.6872 31.4375C51.4683 40.7731 51.1767 50.1065 50.8122 59.4375C49.5622 60.1041 48.3122 60.1041 47.0622 59.4375C46.6923 50.0648 46.4007 40.6898 46.1872 31.3125Z" fill="#162F6A"/>
<path opacity="0.987" fill-rule="evenodd" clip-rule="evenodd" d="M15.4375 15.9376C15.9071 15.884 16.3446 15.9673 16.75 16.1876C18.125 19.271 19.5 22.3543 20.875 25.4376C20.9584 36.896 20.9584 48.3543 20.875 59.8126C20.6041 60.9168 19.9166 61.6043 18.8125 61.8751C16.8959 61.9585 14.9791 61.9585 13.0625 61.8751C11.9583 61.6043 11.2708 60.9168 11 59.8126C10.9167 48.3543 10.9167 36.896 11 25.4376C12.25 22.6043 13.5 19.771 14.75 16.9376C14.9091 16.5505 15.1384 16.2171 15.4375 15.9376ZM15.8125 19.8126C15.1058 21.4766 14.3974 23.1433 13.6875 24.8126C15.2291 24.9793 16.7709 24.9793 18.3125 24.8126C17.5625 23.1876 16.8125 21.5626 16.0625 19.9376C16.0054 19.8379 15.922 19.7963 15.8125 19.8126ZM12.9375 26.9376C14.9375 26.9376 16.9375 26.9376 18.9375 26.9376C18.9375 35.9376 18.9375 44.9376 18.9375 53.9376C18.2709 53.9376 17.6041 53.9376 16.9375 53.9376C16.9375 45.6043 16.9375 37.271 16.9375 28.9376C16.2709 28.9376 15.6041 28.9376 14.9375 28.9376C14.9375 37.271 14.9375 45.6043 14.9375 53.9376C14.2709 53.9376 13.6041 53.9376 12.9375 53.9376C12.9375 44.9376 12.9375 35.9376 12.9375 26.9376ZM12.9375 55.9376C14.9375 55.9376 16.9375 55.9376 18.9375 55.9376C18.9858 57.1126 18.9233 58.2794 18.75 59.4376C18.5553 59.7211 18.2845 59.8669 17.9375 59.8751C16.4303 59.9895 14.9303 59.9478 13.4375 59.7501C13.3334 59.646 13.2291 59.5418 13.125 59.4376C12.9518 58.2794 12.8893 57.1126 12.9375 55.9376Z" fill="#162F6A"/>
</svg>